<svg width="30" height="30" viewBox="0 0 30 30" fill="none" xmlns="http://www.w3.org/2000/svg">
<g clip-path="url(#clip0_283_395)">
<path d="M28.75 13.5093C28.75 12.7571 28.4163 12.0523 27.8346 11.5756C27.6209 11.4006 27.3059 11.4318 27.1309 11.6455C26.9559 11.8591 26.9871 12.1741 27.2008 12.3491C27.5498 12.6352 27.75 13.0581 27.75 13.5093V13.9871L26.1875 15.2681V2C26.1875 0.897187 25.2903 0 24.1875 0H5.8125C4.70969 0 3.8125 0.897187 3.8125 2V13.3528C3.8125 13.6289 4.03637 13.8528 4.3125 13.8528C4.58863 13.8528 4.8125 13.6289 4.8125 13.3528V2C4.8125 1.44863 5.26113 1 5.8125 1H24.1875C24.7389 1 25.1875 1.44863 25.1875 2V16.0878L21.7459 18.9092C21.3836 19.2061 21.5949 19.7959 22.0631 19.7959C22.1746 19.7959 22.2869 19.7587 22.3798 19.6826L27.75 15.2802V28C27.75 28.5514 27.3014 29 26.75 29H3.25C2.69863 29 2.25 28.5514 2.25 28V15.2802L9.24606 21.0155L5.26781 24.0247C5.04756 24.1913 5.00406 24.5049 5.17069 24.7251C5.33738 24.9454 5.651 24.9889 5.87113 24.8223L11.2664 20.7412C11.5253 20.5454 11.8466 20.4376 12.1713 20.4376H17.8288C18.1534 20.4376 18.4748 20.5454 18.7337 20.7412L24.1289 24.8223C24.3487 24.9884 24.6624 24.9459 24.8294 24.7251C24.996 24.5049 24.9525 24.1913 24.7323 24.0247L19.337 19.9437C18.9055 19.6173 18.3699 19.4376 17.8289 19.4376H12.1713C11.6303 19.4376 11.0947 19.6173 10.6632 19.9437L10.0666 20.3949L2.25 13.9871V13.5091C2.25 13.0579 2.45012 12.6351 2.79912 12.349C3.01269 12.1739 3.04394 11.8589 2.86888 11.6454C2.69381 11.4318 2.37881 11.4006 2.16519 11.5756C1.58356 12.0524 1.25 12.7571 1.25 13.5091V28C1.25 29.1028 2.14719 30 3.25 30H26.75C27.8528 30 28.75 29.1028 28.75 28V13.5093Z" fill="#64AA3A"/>
<path d="M20.5625 8.5C21.3896 8.5 22.0625 7.82706 22.0625 7V5.125C22.0625 4.29794 21.3896 3.625 20.5625 3.625H9.4375C8.61044 3.625 7.9375 4.29794 7.9375 5.125V7C7.9375 7.82706 8.61044 8.5 9.4375 8.5H20.5625ZM8.9375 7V5.125C8.9375 4.84931 9.16181 4.625 9.4375 4.625H20.5625C20.8382 4.625 21.0625 4.84931 21.0625 5.125V7C21.0625 7.27569 20.8382 7.5 20.5625 7.5H9.4375C9.16181 7.5 8.9375 7.27569 8.9375 7Z" fill="#64AA3A"/>
<path d="M6.25 11.1875C6.25 11.4636 6.47388 11.6875 6.75 11.6875H23.25C23.5261 11.6875 23.75 11.4636 23.75 11.1875C23.75 10.9114 23.5261 10.6875 23.25 10.6875H6.75C6.47388 10.6875 6.25 10.9114 6.25 11.1875Z" fill="#64AA3A"/>
<path d="M12.9014 14.4375C12.6252 14.4375 12.4014 14.6614 12.4014 14.9375C12.4014 15.2136 12.6252 15.4375 12.9014 15.4375H20.5627C20.8388 15.4375 21.0627 15.2136 21.0627 14.9375C21.0627 14.6614 20.8388 14.4375 20.5627 14.4375H12.9014Z" fill="#64AA3A"/>
<path d="M9.4375 14.4375C9.16138 14.4375 8.9375 14.6614 8.9375 14.9375C8.9375 15.2136 9.16138 15.4375 9.4375 15.4375H10.3186C10.5947 15.4375 10.8186 15.2136 10.8186 14.9375C10.8186 14.6614 10.5947 14.4375 10.3186 14.4375H9.4375Z" fill="#64AA3A"/>
</g>
<defs>
<clipPath id="clip0_283_395">
<rect width="30" height="30" fill="white"/>
</clipPath>
</defs>
</svg>
