<svg width="30" height="30" viewBox="0 0 30 30" fill="none" xmlns="http://www.w3.org/2000/svg">
<path d="M6.32787 8.9502C6.94334 8.9502 6.95846 7.96875 6.32787 7.96875C5.69418 7.96875 5.71492 8.9502 6.32787 8.9502Z" fill="#64AA3A"/>
<path d="M21.9141 0H8.08594C6.85822 0 5.85938 0.998848 5.85938 2.22656V6.62109C5.85938 6.87996 6.06926 7.08984 6.32812 7.08984C6.58699 7.08984 6.79688 6.87996 6.79688 6.62109V2.22656C6.79688 1.51576 7.37514 0.9375 8.08594 0.9375H21.9141C22.6249 0.9375 23.2031 1.51576 23.2031 2.22656V27.7734C23.2031 28.4842 22.6249 29.0625 21.9141 29.0625H8.08594C7.37514 29.0625 6.79688 28.4842 6.79688 27.7734V25.0781H21.6797C21.9386 25.0781 22.1484 24.8682 22.1484 24.6094C22.1484 24.3505 21.9386 24.1406 21.6797 24.1406H6.79688V10.437C6.79688 10.1781 6.58699 9.96826 6.32812 9.96826C6.06926 9.96826 5.85938 10.1781 5.85938 10.437V27.7734C5.85938 29.0012 6.85822 30 8.08594 30H21.9141C23.1418 30 24.1406 29.0012 24.1406 27.7734V2.22656C24.1406 0.998848 23.1418 0 21.9141 0Z" fill="#64AA3A"/>
<path d="M13.418 27.0703C13.418 27.9427 14.1277 28.6523 15 28.6523C15.8723 28.6523 16.582 27.9427 16.582 27.0703C16.582 26.198 15.8723 25.4883 15 25.4883C14.1277 25.4883 13.418 26.198 13.418 27.0703ZM15.6445 27.0703C15.6445 27.4257 15.3554 27.7148 15 27.7148C14.6446 27.7148 14.3555 27.4257 14.3555 27.0703C14.3555 26.7149 14.6446 26.4258 15 26.4258C15.3554 26.4258 15.6445 26.7149 15.6445 27.0703Z" fill="#64AA3A"/>
<path d="M16.3477 1.99219H13.6523C13.3935 1.99219 13.1836 2.20207 13.1836 2.46094C13.1836 2.7198 13.3935 2.92969 13.6523 2.92969H16.3477C16.6065 2.92969 16.8164 2.7198 16.8164 2.46094C16.8164 2.20207 16.6065 1.99219 16.3477 1.99219Z" fill="#64AA3A"/>
<path d="M11.1529 10.6842L10.2154 11.6217C10.0324 11.8048 10.0324 12.1015 10.2154 12.2846C10.3986 12.4677 10.6952 12.4676 10.8783 12.2846L11.8158 11.3471C11.9989 11.164 11.9989 10.8673 11.8158 10.6842C11.6327 10.5012 11.336 10.5012 11.1529 10.6842Z" fill="#64AA3A"/>
<path d="M16.6314 9.36582L16.3531 9.64414C16.1701 9.82724 16.1701 10.124 16.3531 10.3071C16.5363 10.4901 16.8329 10.4901 17.016 10.3071L17.2944 10.0287C17.4774 9.84564 17.4774 9.54892 17.2944 9.36582C17.1113 9.18283 16.8145 9.18283 16.6314 9.36582Z" fill="#64AA3A"/>
<path d="M11.0943 15.5659C11.2775 15.7489 11.5741 15.7488 11.7572 15.5659L15.7416 11.5815C15.9247 11.3984 15.9247 11.1017 15.7416 10.9186C15.5585 10.7356 15.2618 10.7356 15.0787 10.9186L11.0943 14.9029C10.9113 15.086 10.9113 15.3828 11.0943 15.5659Z" fill="#64AA3A"/>
<path d="M18.2721 12.3541L16.3092 14.317C16.1261 14.5001 16.1261 14.7968 16.3092 14.9799C16.4923 15.163 16.789 15.1629 16.9721 14.9799L18.935 13.017C19.118 12.8339 19.118 12.5372 18.935 12.3541C18.7519 12.1711 18.4552 12.1711 18.2721 12.3541Z" fill="#64AA3A"/>
<path d="M16.192 18.7885C16.3751 18.9716 16.6718 18.9715 16.8549 18.7885L19.9018 15.7416C20.0848 15.5585 20.0848 15.2618 19.9018 15.0787C19.7187 14.8957 19.422 14.8957 19.2388 15.0787L16.192 18.1256C16.0089 18.3087 16.0089 18.6054 16.192 18.7885Z" fill="#64AA3A"/>
</svg>
