<svg width="30" height="30" viewBox="0 0 30 30" fill="none" xmlns="http://www.w3.org/2000/svg">
<g clip-path="url(#clip0_284_403)">
<path d="M25.6059 4.39626C19.7446 -1.46501 10.2572 -1.46583 4.39509 4.39626C-0.781449 9.57274 -1.33882 17.4892 2.48262 23.2661C2.63504 23.4964 2.94519 23.5595 3.17542 23.4072C3.4057 23.2549 3.46889 22.9447 3.31659 22.7145C1.80245 20.4255 1.00204 17.7584 1.00204 15.0017C1.00204 7.28294 7.28171 1.00327 15.0005 1.00327C22.7192 1.00327 28.9989 7.28294 28.9989 15.0017C28.9989 22.7205 22.7192 29.0001 15.0005 29.0001C11.2397 29.0001 7.70991 27.5295 5.06139 24.8592C4.86685 24.6632 4.55033 24.6619 4.35435 24.8563C4.15831 25.0508 4.157 25.3673 4.35147 25.5634C7.18922 28.4244 10.971 30.0001 15.0005 30.0001C23.2895 30.0001 29.9988 23.292 29.9988 15.0018C29.9988 10.9955 28.4387 7.22907 25.6059 4.39626Z" fill="#64AA3A"/>
<path d="M27.289 16.6578C27.564 16.6834 27.8075 16.481 27.833 16.2061C28.536 8.62416 22.557 2.11401 15.001 2.11401C7.89469 2.11401 2.11328 7.89536 2.11328 15.0017C2.11328 22.108 7.89463 27.8894 15.001 27.8894C20.9039 27.8894 25.7587 23.9515 27.3366 18.7446C27.4166 18.4803 27.2673 18.2012 27.0031 18.1211C26.7388 18.041 26.4597 18.1903 26.3796 18.4545C24.8507 23.4997 20.278 26.8894 15.0009 26.8894C8.44594 26.8894 3.11311 21.5566 3.11311 15.0016C3.11311 8.44668 8.44601 3.1139 15.0009 3.1139C21.9562 3.1139 27.4872 9.10348 26.8374 16.1138C26.8119 16.3887 27.0141 16.6323 27.289 16.6578Z" fill="#64AA3A"/>
<path d="M25.2111 15.0017C25.2111 14.7256 24.9872 14.5018 24.7112 14.5018H23.2919C23.0158 14.5018 22.792 14.7256 22.792 15.0017C22.792 15.2778 23.0158 15.5017 23.2919 15.5017H24.7112C24.9872 15.5017 25.2111 15.2778 25.2111 15.0017Z" fill="#64AA3A"/>
<path d="M9.96886 7.28578L10.4222 8.07107C10.5604 8.31023 10.8662 8.3921 11.1052 8.25405C11.3443 8.116 11.4262 7.81022 11.2882 7.57113L10.5777 6.3407C10.4397 6.10167 10.1335 6.01955 9.89437 6.15797C8.34561 7.05406 7.05332 8.34641 6.1571 9.89524C6.01881 10.1342 6.10061 10.4404 6.33983 10.5786L7.57032 11.289C7.80904 11.4268 8.11501 11.3456 8.25324 11.106C8.39129 10.8669 8.30936 10.5612 8.07026 10.4231L7.28498 9.96973C7.98402 8.90016 8.89948 7.9847 9.96886 7.28578Z" fill="#64AA3A"/>
<path d="M18.7135 22.4322L19.4242 23.6631C19.5625 23.9021 19.8683 23.9837 20.1073 23.8454C21.6561 22.9493 22.9484 21.6569 23.8446 20.1082C23.9829 19.8692 23.9011 19.563 23.6619 19.4248L22.4314 18.7144C22.1922 18.5763 21.8864 18.6583 21.7484 18.8974C21.6104 19.1365 21.6923 19.4423 21.9314 19.5803L22.7167 20.0337C22.0178 21.1029 21.1019 22.0182 20.0326 22.7171L19.5795 21.9322C19.4414 21.6931 19.1357 21.6111 18.8966 21.7492C18.6574 21.8873 18.5755 22.1931 18.7135 22.4322Z" fill="#64AA3A"/>
<path d="M9.89435 23.8454C10.1332 23.9837 10.4395 23.9019 10.5777 23.6627L11.2881 22.4322C11.4262 22.1931 11.3442 21.8874 11.1052 21.7493C10.8661 21.6112 10.5603 21.6932 10.4222 21.9323L9.96884 22.7176C8.89946 22.0186 7.984 21.1032 7.28502 20.0337L8.0703 19.5804C8.3094 19.4423 8.39133 19.1365 8.25328 18.8974C8.11524 18.6583 7.8094 18.5764 7.57036 18.7145L6.33987 19.4249C6.10071 19.563 6.01872 19.8691 6.15715 20.1082C7.05329 21.657 8.34559 22.9493 9.89435 23.8454Z" fill="#64AA3A"/>
<path d="M14.501 23.2931V24.7123C14.501 24.9884 14.7248 25.2123 15.0009 25.2123C15.277 25.2123 15.5009 24.9884 15.5009 24.7123V23.2931C15.5009 23.017 15.277 22.7932 15.0009 22.7932C14.7248 22.7932 14.501 23.017 14.501 23.2931Z" fill="#64AA3A"/>
<path d="M21.7485 11.1059C21.887 11.3458 22.193 11.4266 22.4314 11.2889L23.6619 10.5785C23.901 10.4405 23.983 10.1343 23.8446 9.89513C22.9485 8.34637 21.6561 7.05408 20.1073 6.15786C19.8684 6.0195 19.5621 6.10137 19.424 6.34059L18.7135 7.57108C18.5755 7.81024 18.6574 8.11596 18.8965 8.254C19.1357 8.39199 19.4414 8.31012 19.5794 8.07102L20.0328 7.28574C21.1023 7.98472 22.0177 8.90012 22.7167 9.96956L21.9314 10.4229C21.6924 10.5611 21.6105 10.8668 21.7485 11.1059Z" fill="#64AA3A"/>
<path d="M15.0009 7.21024C15.277 7.21024 15.5009 6.98639 15.5009 6.7103V5.29108C15.5009 5.01499 15.277 4.79114 15.0009 4.79114C14.7248 4.79114 14.501 5.01499 14.501 5.29108V6.7103C14.501 6.98639 14.7248 7.21024 15.0009 7.21024Z" fill="#64AA3A"/>
<path d="M4.79004 15.0017C4.79004 15.2778 5.01389 15.5017 5.28998 15.5017H6.7092C6.98529 15.5017 7.20914 15.2778 7.20914 15.0017C7.20914 14.7256 6.98529 14.5018 6.7092 14.5018H5.28998C5.01389 14.5018 4.79004 14.7256 4.79004 15.0017Z" fill="#64AA3A"/>
<path d="M17.0628 15.0017C17.0628 14.0369 16.3968 13.2251 15.5005 13.001V8.72333C15.5005 8.44724 15.2766 8.22339 15.0005 8.22339C14.7245 8.22339 14.5006 8.44724 14.5006 8.72333V13.001C13.385 13.2799 12.6934 14.4353 13.0182 15.5689L10.7637 16.8705C10.5246 17.0086 10.4427 17.3144 10.5807 17.5535C10.7192 17.7934 11.0252 17.8741 11.2637 17.7364L13.5191 16.4342C13.8943 16.822 14.4195 17.0639 15.0005 17.0639C16.1377 17.064 17.0628 16.1388 17.0628 15.0017ZM15.0005 16.0641C14.4147 16.0641 13.9382 15.5875 13.9382 15.0017C13.9382 14.4159 14.4147 13.9393 15.0005 13.9393C15.5864 13.9393 16.0629 14.4159 16.0629 15.0017C16.0629 15.5875 15.5864 16.0641 15.0005 16.0641Z" fill="#64AA3A"/>
</g>
<defs>
<clipPath id="clip0_284_403">
<rect width="30" height="30" fill="white"/>
</clipPath>
</defs>
</svg>
