<svg width="100" height="100" viewBox="0 0 100 100" fill="none" xmlns="http://www.w3.org/2000/svg" style="opacity: 0.3">
<path d="M99.6911 69.8317L96.9615 62.4358C96.24 60.4804 94.3546 59.1667 92.2698 59.1667H91.2502V50.625C91.2502 46.03 87.5119 42.2917 82.9169 42.2917H11.929C11.0086 42.2917 10.2623 43.0379 10.2623 43.9583C10.2623 44.8787 11.0086 45.625 11.929 45.625H82.9169C85.6738 45.625 87.9169 47.8679 87.9169 50.625V59.1667H74.4829C67.6461 59.1667 62.0836 64.7273 62.0836 71.5625C62.0836 78.3977 67.6459 83.9583 74.4829 83.9583H87.9169V91.0417C87.9169 93.7987 85.674 96.0417 82.9169 96.0417H8.33358C5.5765 96.0417 3.33358 93.7987 3.33358 91.0417V30.7287C5.10733 32.2585 7.399 33.125 9.74004 33.125H82.9171C85.6742 33.125 87.9171 35.3679 87.9171 38.125V39.4623C87.9171 40.3827 88.6634 41.129 89.5838 41.129C90.5042 41.129 91.2504 40.3827 91.2504 39.4623V38.125C91.2504 34.1748 88.4869 30.8602 84.7921 30.0071V22.2917C84.7921 20.865 84.4248 19.4567 83.7302 18.2185C83.28 17.4158 82.2642 17.1302 81.4613 17.5806C80.6584 18.031 80.3729 19.0469 80.8234 19.8496C81.2392 20.5906 81.4588 21.435 81.4588 22.2917V29.7917H75.1998L78.6298 22.2048C79.6763 19.89 78.6444 17.1552 76.3294 16.1085L62.8236 10.0027C61.9848 9.62354 60.9973 9.99604 60.6184 10.8348C60.2392 11.6735 60.6117 12.6608 61.4505 13.04L74.9563 19.1458C75.5963 19.4352 75.8817 20.1915 75.5923 20.8317L71.5417 29.7917H38.9586V10.7527C38.9586 9.83229 38.2123 9.08604 37.2919 9.08604C36.3715 9.08604 35.6252 9.83229 35.6252 10.7527V29.7917H14.1669V5.23229C14.1669 4.52979 14.7384 3.95833 15.4409 3.95833H22.7086V23.3333C22.7086 24.2537 23.4548 25 24.3752 25C25.2957 25 26.0419 24.2537 26.0419 23.3333V3.95833H51.8513C52.5538 3.95833 53.1252 4.52979 53.1252 5.23229V23.4408C53.1252 24.3612 53.8715 25.1075 54.7919 25.1075C55.7123 25.1075 56.4586 24.3612 56.4586 23.4408V5.23229C56.4586 2.69187 54.3917 0.625 51.8513 0.625H15.4409C12.9005 0.625 10.8336 2.69187 10.8336 5.23229V29.7917H9.73983C8.01941 29.7917 6.33608 29.0817 5.1215 27.8435C2.31379 24.9817 2.95087 20.4885 6.07962 18.3652C6.84129 17.8483 7.03962 16.8119 6.52275 16.0502C6.00587 15.2887 4.96941 15.0904 4.20775 15.6071C1.63212 17.3552 0.0192056 20.2846 0.00295559 23.4898C-0.00121107 23.621 0.000247261 90.3344 0.000247261 91.0417C0.000247261 95.6367 3.73858 99.375 8.33358 99.375H82.9169C87.5119 99.375 91.2502 95.6367 91.2502 91.0417V82.2917C91.2502 81.3712 90.504 80.625 89.5836 80.625H74.4829C69.484 80.625 65.4169 76.5596 65.4169 71.5625C65.4169 66.5654 69.4838 62.5 74.4829 62.5H92.2698C92.965 62.5 93.5938 62.9381 93.8344 63.59L96.564 70.9858C96.7013 71.3577 96.7013 71.7675 96.564 72.1394L94.6121 77.4279C94.2934 78.2915 94.735 79.25 95.5986 79.5685C96.4619 79.8869 97.4204 79.4454 97.7392 78.5821L99.6911 73.2935C100.103 72.1771 100.103 70.9479 99.6911 69.8317V69.8317Z" fill="white"/>
<path d="M75.2086 74.7917C77.0495 74.7917 78.5419 73.2993 78.5419 71.4583C78.5419 69.6174 77.0495 68.125 75.2086 68.125C73.3676 68.125 71.8752 69.6174 71.8752 71.4583C71.8752 73.2993 73.3676 74.7917 75.2086 74.7917Z" fill="white"/>
</svg>
