<svg width="100" height="100" viewBox="0 0 100 100" fill="none" xmlns="http://www.w3.org/2000/svg" style="opacity: 0.3">
<path d="M21.1583 90.0991C18.9835 92.197 15.5841 92.1974 13.4188 90.1074C9.57753 86.3996 6.22854 82.5034 3.1658 78.1758C-1.67321 71.3341 -0.862991 62.0465 5.09228 56.0912C11.8292 49.3543 22.7333 49.3534 29.4711 56.0912C35.4263 62.0463 36.2368 71.3341 31.398 78.1752C30.3765 79.6196 29.3063 81.0338 28.219 82.3821C27.6413 83.0988 26.5919 83.2111 25.8752 82.6334C25.1587 82.0556 25.0462 81.0063 25.624 80.2896C26.6794 78.9808 27.7077 77.62 28.6763 76.2504C35.2074 67.0167 28.4236 54.3756 17.2816 54.3756C6.13291 54.3756 -0.638614 67.0244 5.88687 76.2506C8.71898 80.2525 11.9113 84.0194 15.7338 87.709C16.603 88.548 17.9691 88.544 18.8441 87.7003C19.5066 87.0611 20.5618 87.0803 21.2008 87.7426C21.8397 88.4049 21.8208 89.4601 21.1583 90.0991V90.0991ZM17.2662 73.4651C14.422 73.4651 12.108 71.1512 12.108 68.307C12.108 67.3865 11.3617 66.6403 10.4413 66.6403C9.52087 66.6403 8.77461 67.3865 8.77461 68.307C8.77461 72.9893 12.5838 76.7985 17.2662 76.7985C21.9485 76.7985 25.7577 72.9893 25.7577 68.307C25.7577 63.6246 21.9485 59.8154 17.2662 59.8154C16.3457 59.8154 15.5995 60.5617 15.5995 61.4821C15.5995 62.4025 16.3457 63.1488 17.2662 63.1488C20.1104 63.1488 22.4243 65.4628 22.4243 68.307C22.4243 71.1512 20.1104 73.4651 17.2662 73.4651ZM35.5597 48.3624H64.0264C67.7261 48.3624 70.7361 51.3724 70.7361 55.072C70.7361 58.7717 67.7261 61.7817 64.0264 61.7817H62.4498C61.5293 61.7817 60.7831 62.5279 60.7831 63.4484C60.7831 64.3688 61.5293 65.1151 62.4498 65.1151H64.0264C69.5642 65.1151 74.0695 60.6098 74.0695 55.072C74.0695 49.5343 69.5642 45.029 64.0264 45.029H35.5597C31.8601 45.029 28.85 42.019 28.85 38.3194V37.3339C28.85 33.6343 31.8601 30.6243 35.5597 30.6243H60.4929C61.4133 30.6243 62.1595 29.878 62.1595 28.9576C62.1595 28.0372 61.4133 27.2909 60.4929 27.2909H35.5597C30.0219 27.2909 25.5167 31.7962 25.5167 37.3339V38.3194C25.5167 43.8571 30.0219 48.3624 35.5597 48.3624ZM80.9762 78.9285H62.4498C58.7501 78.9285 55.7401 75.9185 55.7401 72.2189V71.8247C55.7401 70.9043 54.9938 70.158 54.0734 70.158C53.153 70.158 52.4067 70.9043 52.4067 71.8247C52.4067 78.2669 57.2889 82.2619 62.4498 82.2619H80.9762C84.6758 82.2619 87.6858 85.2719 87.6858 88.9715V89.957C87.6858 93.6566 84.6758 96.6666 80.9762 96.6666H18.9914C18.071 96.6666 17.3247 97.4129 17.3247 98.3333C17.3247 99.2537 18.071 100 18.9914 100H80.9762C86.514 100 91.0192 95.4947 91.0192 89.957V88.9715C91.0192 83.4338 86.514 78.9285 80.9762 78.9285ZM82.6989 0C73.7265 0 66.6069 6.76486 65.5767 15.1599C65.4646 16.0737 66.1144 16.9052 67.0279 17.0173C67.9402 17.1283 68.7732 16.4798 68.8852 15.566C70.2869 4.14671 84.2983 -0.826884 92.5313 7.40612C97.3349 12.2099 97.992 19.6967 94.0936 25.2084C91.2003 29.3003 87.8898 33.1574 84.2612 36.6581C83.3864 37.5021 82.0202 37.5058 81.151 36.6668C77.5862 33.226 74.3401 29.4988 71.3038 25.2082C70.7721 24.4569 69.7321 24.2786 68.9807 24.8105C68.2294 25.3421 68.0513 26.3822 68.5829 27.1336C71.6419 31.456 74.9901 35.3529 78.836 39.0652C81.0039 41.1577 84.4033 41.1523 86.5754 39.0569C90.349 35.4162 93.7957 31.4024 96.8149 27.1332C104.901 15.7018 96.5466 0 82.6989 0V0ZM82.6835 12.1066C83.6039 12.1066 84.3502 11.3603 84.3502 10.4399C84.3502 9.51947 83.6039 8.77322 82.6835 8.77322C78.0012 8.77322 74.192 12.5824 74.192 17.2648C74.192 21.9471 78.0012 25.7563 82.6835 25.7563C87.3658 25.7563 91.1751 21.9471 91.1751 17.2648C91.1751 16.3443 90.4288 15.5981 89.5084 15.5981C88.5879 15.5981 87.8417 16.3443 87.8417 17.2648C87.8417 20.109 85.5277 22.4229 82.6835 22.4229C79.8393 22.4229 77.5253 20.109 77.5253 17.2648C77.5253 14.4206 79.8395 12.1066 82.6835 12.1066V12.1066Z" fill="white"/>
</svg>
