<svg width="100" height="100" viewBox="0 0 100 100" fill="none" xmlns="http://www.w3.org/2000/svg">
<path d="M87.8471 69.7281V59.5146C87.8471 57.8964 87.2177 56.3736 86.071 55.2246C84.9251 54.081 83.4023 53.4515 81.7841 53.4515H80.9433V46.6469C80.9433 45.8298 80.2811 45.1675 79.464 45.1675C78.6476 45.1675 77.9846 45.8298 77.9846 46.6469V53.4515H75.322C74.5842 53.4515 73.8831 53.6125 73.2513 53.8994V39.7438C73.2513 37.8403 71.7026 36.2915 69.799 36.2915H69.5015C69.1765 36.2915 68.9117 36.0275 68.9117 35.7025V19.6251C68.9117 18.2655 70.018 17.16 71.3776 17.16H74.3835C74.4255 17.16 74.4675 17.157 74.5087 17.1532C74.5979 17.1577 74.688 17.16 74.778 17.16H74.8901C76.6258 17.16 77.9846 18.6508 77.9846 20.5544V39.7438C77.9846 40.5609 78.6476 41.2231 79.464 41.2231C80.2811 41.2231 80.9433 40.5609 80.9433 39.7438V20.5544C80.9433 16.9914 78.2845 14.2014 74.8901 14.2014H74.778C74.6902 14.2014 74.6056 14.1975 74.5094 14.1884C72.9187 14.0556 71.6736 12.6968 71.6736 11.097C71.6736 9.02405 71.0106 7.0549 69.7571 5.40161C68.5059 3.75214 66.7915 2.57874 64.7987 2.00806C57.8743 0.0228884 50.3906 0 50.0755 0C49.7604 0 42.2775 0.0228884 35.3531 2.00806C33.3603 2.57874 31.646 3.75214 30.394 5.40161C29.1405 7.0549 28.4782 9.02405 28.4782 11.097C28.4782 12.6968 27.2324 14.0556 25.6317 14.1899C25.5463 14.1975 25.4616 14.2014 25.3738 14.2014H25.2617C21.8674 14.2014 19.2078 16.9922 19.2078 20.5544V39.7438C19.2078 40.5609 19.87 41.2231 20.6871 41.2231C21.5042 41.2231 22.1664 40.5609 22.1664 39.7438V20.5544C22.1664 18.6508 23.526 17.16 25.2617 17.16H25.3738C25.4639 17.16 25.5547 17.1577 25.6432 17.1539C25.6844 17.157 25.7263 17.16 25.7683 17.16H28.7743C30.1338 17.16 31.2393 18.2663 31.2393 19.6251V35.7025C31.2393 36.0275 30.9753 36.2923 30.6503 36.2923H30.352C28.4485 36.2923 26.9005 37.8403 26.9005 39.7438V53.9001C26.268 53.6125 25.5676 53.4515 24.8291 53.4515H22.1664V46.6469C22.1664 45.8298 21.5042 45.1675 20.6871 45.1675C19.87 45.1675 19.2078 45.8298 19.2078 46.6469V53.4515H18.3678C15.0246 53.4515 12.3047 56.1714 12.3047 59.5146V69.7281C12.3047 73.0705 13.5925 76.3336 15.8554 78.7781V88.3003C15.8554 89.1403 15.4373 89.9208 14.7385 90.3862C13.2149 91.4024 12.3047 93.1023 12.3047 94.9341V98.5207C12.3047 99.3378 12.9669 100 13.784 100H86.3678C87.1849 100 87.8471 99.3378 87.8471 98.5207V94.9341C87.8471 93.1023 86.937 91.4024 85.4134 90.3862C84.7137 89.92 84.2964 89.1403 84.2964 88.3003V78.7788C86.5601 76.3329 87.8471 73.0705 87.8471 69.7281ZM75.322 56.4102H81.7841C82.6134 56.4102 83.3939 56.7329 83.979 57.3174C84.5657 57.9048 84.8885 58.6853 84.8885 59.5146V69.7281C84.8885 72.2748 83.9264 74.7612 82.2311 76.6495C81.884 76.7998 81.6048 77.0798 81.4568 77.4284C80.7808 78.0365 80.0285 78.553 79.2145 78.9665C74.5972 81.3042 66.7603 84.169 55.3024 84.8541V76.1642C62.191 75.7172 66.9037 74.4461 69.6991 73.4253C71.8239 72.6501 73.2513 70.6047 73.2513 68.335V58.4808C73.2513 57.3395 74.1806 56.4102 75.322 56.4102ZM46.0327 66.6664V58.58H54.1191V66.6664H46.0327ZM54.554 55.6213H45.5978L38.9725 36.9659L42.0761 36.0352L48.6908 53.6751C48.9075 54.2526 49.4591 54.6349 50.0763 54.6349C50.6927 54.6349 51.2444 54.2526 51.461 53.6751L58.0765 36.0352L61.1794 36.9659L54.554 55.6213ZM47.8073 69.6251H52.3445V90.2367H47.8073V69.6251ZM30.4085 14.4531C31.057 13.4857 31.4369 12.3283 31.4369 11.097C31.4369 9.67484 31.8916 8.32367 32.7515 7.18994C33.6136 6.05392 34.7946 5.24521 36.1679 4.85229C42.6826 2.98462 50.0031 2.95868 50.0755 2.95868C50.1488 2.95868 57.4539 2.9808 63.9839 4.85229C65.3572 5.24597 66.5382 6.05392 67.4004 7.18994C68.2602 8.32367 68.7149 9.67484 68.7149 11.097C68.7149 12.3283 69.0941 13.4865 69.7426 14.4539C68.3022 14.9101 67.1204 15.9531 66.478 17.3004C61.5295 12.6007 50.7057 12.2452 50.1152 12.2292C50.0885 12.2292 50.0626 12.2292 50.0366 12.2292C49.4453 12.2452 38.6223 12.6007 33.6731 17.3004C33.0307 15.9523 31.8489 14.9094 30.4085 14.4531ZM29.8592 39.7438C29.8592 39.4714 30.0804 39.2502 30.352 39.2502H30.6496C32.5554 39.2502 34.1103 37.7396 34.1904 35.8536C34.1957 35.804 34.198 35.7529 34.198 35.7018V22.7806C34.198 15.9874 49.1943 15.2252 50.0755 15.1878C50.9628 15.2252 65.9531 15.9889 65.9531 22.7806V35.7018C65.9531 35.7094 65.9546 35.717 65.9546 35.7246C65.9554 35.7681 65.9569 35.8109 65.9607 35.8536C66.0408 37.7396 67.5964 39.2502 69.5015 39.2502H69.799C70.0714 39.2502 70.2927 39.4714 70.2927 39.743V68.335C70.2927 69.3665 69.6465 70.295 68.6844 70.6459C66.098 71.5904 61.734 72.7638 55.3024 73.1987V69.6251H55.5984C56.4156 69.6251 57.0778 68.9629 57.0778 68.1458V57.3555L64.4875 36.4914C64.6225 36.1092 64.5958 35.6888 64.4127 35.3271C64.2296 34.9663 63.9061 34.6954 63.5185 34.5795L57.6012 32.8041C56.8558 32.5806 56.0646 32.9727 55.7915 33.7013L50.0755 48.9426L44.3604 33.7013C44.0872 32.9727 43.2968 32.5798 42.5499 32.8041L36.6333 34.5795C36.245 34.6954 35.9215 34.9663 35.7384 35.3271C35.5553 35.6888 35.5286 36.1092 35.6644 36.4914L43.074 57.3555V68.1458C43.074 68.9629 43.7363 69.6251 44.5534 69.6251H44.8494V73.1987C38.4178 72.7638 34.0538 71.5904 31.4667 70.6459C30.5054 70.295 29.8592 69.3665 29.8592 68.335V39.7438ZM15.2634 59.5146C15.2634 57.8026 16.6557 56.4102 18.3678 56.4102H24.8291C25.9712 56.4102 26.9005 57.3395 26.9005 58.4816V68.3357C26.9005 70.6047 28.3279 72.6509 30.452 73.4253C33.2481 74.4469 37.9601 75.7172 44.8486 76.165V84.8549C33.3908 84.1698 25.5547 81.3049 20.9381 78.9665C20.1233 78.5538 19.371 78.0373 18.6951 77.4284C18.5463 77.0798 18.2678 76.8005 17.9199 76.6502C16.2254 74.762 15.2634 72.2755 15.2634 69.7281V59.5146ZM84.8885 94.9341V97.0413H15.2634V94.9341C15.2634 94.0941 15.6807 93.3144 16.3795 92.8482C17.9031 91.832 18.8133 90.1321 18.8133 88.3003V81.1707C19.0704 81.324 19.3329 81.4697 19.6007 81.6055C24.4942 84.0843 32.7896 87.1223 44.8494 87.8189V91.716C44.8494 92.5331 45.5116 93.1953 46.328 93.1953H53.8231C54.6402 93.1953 55.3024 92.5331 55.3024 91.716V87.8189C67.3622 87.1223 75.6577 84.0843 80.5519 81.6055C80.8197 81.4697 81.0814 81.324 81.3385 81.1707V88.3003C81.3385 90.1321 82.2479 91.832 83.7723 92.8482C84.4711 93.3144 84.8885 94.0941 84.8885 94.9341Z" fill="#64AA3A"/>
</svg>
