<svg width="100" height="100" viewBox="0 0 100 100" fill="none" xmlns="http://www.w3.org/2000/svg">
<g clip-path="url(#clip0_95_96)">
<path d="M3.39466 83.1063V95.1896C3.39466 96.11 2.64841 96.8563 1.72799 96.8563C0.807573 96.8563 0.0613231 96.11 0.0613231 95.1896V83.1063C0.0613231 82.1859 0.807573 81.4396 1.72799 81.4396C2.64841 81.4396 3.39466 82.1859 3.39466 83.1063ZM27.5303 55.1138C27.5088 56.0206 26.767 56.7413 25.8649 56.7413C22.6847 56.7413 19.2299 54.9386 17.3488 51.6986H14.4963C8.37487 51.6986 3.39466 56.6788 3.39466 62.8004V74.0692H12.9167V71.6479C12.9167 70.7275 13.663 69.9813 14.5834 69.9813C15.5038 69.9813 16.2501 70.7275 16.2501 71.6479V95.1896C16.2501 96.11 15.5038 96.8563 14.5834 96.8563C13.663 96.8563 12.9167 96.11 12.9167 95.1896V77.4023H1.66674C0.578823 77.4023 -0.23451 76.3681 0.0613231 75.2934V62.8002C0.0613231 54.8406 6.53674 48.365 14.4963 48.365H17.0663L18.2851 44.6861C13.8111 42.005 11.2336 37.2415 11.2336 32.2779C11.2336 29.6071 11.2336 16.3923 11.2336 13.7338C11.2336 7.89439 15.9844 3.14355 21.8238 3.14355H44.6438C45.5642 3.14355 46.3105 3.8898 46.3105 4.81022V9.62751C46.3105 17.6688 39.7684 24.2108 31.7272 24.2108H14.5669V32.2779C14.5669 38.6169 19.963 43.9246 26.6792 43.335C32.338 42.8373 36.7705 37.9283 36.7705 32.1592V28.9281C36.7705 28.0077 37.5167 27.2615 38.4372 27.2615C39.3576 27.2615 40.1038 28.0077 40.1038 28.9281V32.1592C40.1038 36.9983 37.7238 41.4773 33.8288 44.1761L35.4103 49.4256C35.7317 50.4927 34.9328 51.5736 33.8138 51.5736C33.0976 51.5736 32.4359 51.1083 32.2186 50.3873L30.8259 45.764C27.7828 46.9334 24.3999 47.0146 21.3422 46.0577L20.1034 49.7973C21.2463 51.9529 23.4634 53.3509 25.9034 53.4081C26.8234 53.43 27.5517 54.1936 27.5303 55.1138ZM14.5669 20.8777H31.7272C37.9303 20.8777 42.9772 15.8308 42.9772 9.62772V6.4771H21.8238C17.8224 6.4771 14.5669 9.73251 14.5669 13.734V20.8777ZM90.9405 49.3577C90.0859 49.0144 89.1159 49.4277 88.7722 50.2819C88.4286 51.1358 88.8424 52.1067 89.6963 52.4502C93.9307 54.154 96.667 58.2044 96.667 62.7692V66.6479C96.667 67.5684 97.4132 68.3146 98.3336 68.3146C99.254 68.3146 100 67.5684 100 66.6479V62.7692C100 56.8365 96.444 51.5721 90.9405 49.3577ZM82.1265 51.5265C81.4103 51.5265 80.7486 51.0613 80.5313 50.3402L79.1382 45.7154C76.2147 46.8348 72.8344 47.0021 69.6397 45.9969L68.3963 49.7504C69.5411 51.9094 71.7617 53.31 74.2061 53.3673C75.1263 53.389 75.8547 54.1527 75.8332 55.0729C75.8117 55.9798 75.0699 56.7004 74.1678 56.7004C70.5595 56.7004 66.7236 54.4167 65.0699 50.5092C64.9122 50.1367 64.8953 49.7194 65.0226 49.3354L66.5842 44.6215C62.2215 42.0004 59.5201 37.2502 59.5201 32.0898V25.6586C59.5201 24.7086 60.3184 23.9636 61.2074 23.9921C68.3347 24.0767 75.5111 23.0098 82.472 20.6729C85.359 19.704 88.4226 21.819 88.4226 24.9427V32.2083C88.4226 36.7921 86.2147 41.3231 82.143 44.1327L83.7232 49.3788C84.0447 50.4459 83.2457 51.5265 82.1265 51.5265ZM85.089 32.2083V24.9427C85.089 24.5613 84.9117 24.215 84.6028 23.9925C83.824 23.4325 83.7276 23.9571 78.962 25.1886C73.7257 26.5408 68.3145 27.2581 62.8534 27.325V32.0896C62.8534 37.8669 67.2926 42.7831 72.9594 43.2817C79.6859 43.8742 85.089 38.5525 85.089 32.2083ZM57.7838 79.9473L59.2961 84.6827C59.5761 85.5596 59.0922 86.4973 58.2153 86.7775C57.3372 87.0575 56.4003 86.5729 56.1205 85.6967L54.7232 81.3217C51.6424 82.3159 48.3461 82.3069 45.3011 81.33L44.0757 85.0938C45.1736 87.2923 47.3753 88.7227 49.8332 88.7842C50.7534 88.8071 51.4807 89.5717 51.4576 90.4919C51.4351 91.3979 50.6934 92.1169 49.7924 92.1169C46.588 92.1169 43.0663 90.2667 41.2332 86.8563H37.9167C34.2407 86.8563 31.2501 89.8469 31.2501 93.5229V95.1896C31.2501 96.11 30.5038 96.8563 29.5834 96.8563C28.663 96.8563 27.9167 96.11 27.9167 95.1896V93.5229C27.9167 88.009 32.4028 83.5229 37.9167 83.5229H41.0815L42.2411 79.9613C37.6657 77.2846 34.5834 72.3209 34.5834 66.6479C34.5834 56.6848 43.9474 49.299 53.6603 51.674V23.9921C53.6603 12.5479 62.9707 3.23751 74.4151 3.23751C85.8592 3.23751 95.1697 12.5479 95.1697 23.9921V41.1063C95.1697 42.0267 94.4234 42.7729 93.503 42.7729C92.5826 42.7729 91.8363 42.0267 91.8363 41.1063V23.9921C91.8363 14.3861 84.0211 6.57085 74.4151 6.57085C64.8088 6.57085 56.9936 14.3861 56.9936 23.9921V52.9159C67.847 58.4659 68.2992 73.769 57.7838 79.9473ZM62.0834 66.6479C62.0834 59.9852 56.6628 54.5646 50.0001 54.5646C43.3374 54.5646 37.9167 59.9852 37.9167 66.6479C37.9167 73.3106 43.3374 78.7313 50.0001 78.7313C56.6628 78.7313 62.0834 73.3109 62.0834 66.6479ZM66.6055 84.6019C65.7842 84.1848 64.7813 84.5129 64.3649 85.3334C63.948 86.154 64.2755 87.1573 65.0963 87.574C67.3503 88.7184 68.7501 90.9979 68.7501 93.5229V95.1896C68.7501 96.11 69.4963 96.8563 70.4167 96.8563C71.3372 96.8563 72.0834 96.11 72.0834 95.1896V93.5229C72.0834 89.7361 69.9845 86.3175 66.6055 84.6019ZM98.3334 74.069H87.0834V71.6479C87.0834 70.7275 86.3372 69.9813 85.4167 69.9813C84.4963 69.9813 83.7501 70.7275 83.7501 71.6479V95.1896C83.7501 96.11 84.4963 96.8563 85.4167 96.8563C86.3372 96.8563 87.0834 96.11 87.0834 95.1896V77.4023H96.6667V95.1896C96.6667 96.11 97.413 96.8563 98.3334 96.8563C99.2538 96.8563 100 96.11 100 95.1896V75.7356C100 74.8152 99.2538 74.069 98.3334 74.069Z" fill="#64AA3A"/>
</g>
<defs>
<clipPath id="clip0_95_96">
<rect width="100" height="100" fill="white"/>
</clipPath>
</defs>
</svg>
