<svg width="30" height="30" viewBox="0 0 30 30" fill="none" xmlns="http://www.w3.org/2000/svg">
<g clip-path="url(#clip0_284_416)">
<path d="M23.2944 4.14397C18.433 -2.85562 4.37695 -0.947871 4.37695 9.56297C4.37695 16.8533 11.0947 19.1212 12.5071 25.8337C12.9908 28.1326 16.2838 28.1363 16.7684 25.8337C16.8491 25.45 16.9473 25.0807 17.0606 24.7242C21.0487 25.0623 22.5122 26.1847 22.4898 26.8342C22.4301 28.5611 16.6676 29.0058 14.6377 29.005C11.0619 29.0037 6.95628 28.2295 6.78904 26.868C6.7271 26.3636 7.54011 25.6364 9.49591 25.1488C9.76383 25.082 9.92688 24.8107 9.86008 24.5428C9.79327 24.2748 9.52197 24.1115 9.25406 24.1786C6.90915 24.7632 5.64893 25.7879 5.79654 26.9899C6.11277 29.5646 12.0333 30.0001 14.6377 30.0001C19.9489 30.0001 23.4233 28.771 23.4891 26.8688C23.5435 25.295 21.2352 24.1228 17.4176 23.753C18.2959 21.6501 19.6735 20.005 21.0864 18.2594C21.2602 18.0448 21.2267 17.7299 21.0121 17.5563C20.7973 17.3827 20.4827 17.4161 20.3089 17.6307C18.289 20.1258 16.4614 22.4361 15.7898 25.6279C15.5272 26.8759 13.7476 26.8731 13.4856 25.6279C12.0076 18.6029 5.37688 16.3884 5.37688 9.56297C5.37688 0.389037 17.3642 -1.41284 22.032 4.13747H13.2301C13.672 3.66169 14.1572 3.40308 14.6377 3.40308C14.9138 3.40308 15.1377 3.17922 15.1377 2.90311C15.1377 2.62701 14.9138 2.40315 14.6377 2.40315C12.0536 2.40315 10.4232 6.27619 10.4443 10.282C10.4795 16.983 14.6959 20.1446 17.3087 16.1839H23.1232C24.5016 16.1839 25.6231 15.0625 25.6231 13.6841V6.63723C25.6231 5.31639 24.5932 4.23221 23.2944 4.14397ZM13.2302 16.1838H16.0471C15.1431 17.1604 14.1402 17.1635 13.2302 16.1838ZM24.6232 13.684C24.6232 14.5111 23.9503 15.1839 23.1233 15.1839C11.9634 15.1839 12.7859 15.2065 12.5075 15.1316C11.6816 13.5521 11.3971 11.5158 11.4544 9.7129C12.2523 10.2425 13.6949 10.7285 15.3274 11.3237L12.6704 12.7299C12.4264 12.8591 12.3332 13.1616 12.4624 13.4056C12.5918 13.6501 12.8946 13.7426 13.1382 13.6137L16.5845 11.7897C16.7577 11.8549 16.9343 11.9217 17.1173 11.9918C17.6934 12.2122 18.3279 12.2123 18.9041 11.9918C19.0871 11.9217 19.2637 11.8549 19.4369 11.7897L22.8832 13.6137C23.1272 13.7428 23.4298 13.6497 23.559 13.4056C23.6882 13.1616 23.5951 12.8591 23.351 12.7299L20.694 11.3237C21.8018 10.9197 22.7359 10.5873 23.4159 10.3006C23.6703 10.1933 23.7896 9.90007 23.6823 9.64565C23.575 9.39123 23.2819 9.27199 23.0274 9.37923C22.0577 9.78814 20.5871 10.2772 18.5467 11.0579C18.2011 11.1901 17.8203 11.1901 17.4747 11.0579C13.8092 9.65527 12.02 9.20768 11.5546 8.43611C11.6951 7.33893 11.9906 6.17789 12.5075 5.18964C12.7858 5.11477 11.9176 5.13734 23.1234 5.13734C23.9504 5.13734 24.6232 5.81016 24.6232 6.63723V13.684H24.6232Z" fill="#64AA3A"/>
</g>
<defs>
<clipPath id="clip0_284_416">
<rect width="30" height="30" fill="white"/>
</clipPath>
</defs>
</svg>
