<svg width="20" height="20" viewBox="0 0 20 20" fill="none" xmlns="http://www.w3.org/2000/svg">
<g clip-path="url(#clip0_133_942)">
<path d="M10 9.32288C9.56852 9.32288 9.21875 9.67264 9.21875 10.1041V12.6792C9.21875 13.1107 9.56852 13.4605 10 13.4605C10.4315 13.4605 10.7812 13.1107 10.7812 12.6792V10.1041C10.7812 9.67264 10.4315 9.32288 10 9.32288Z" fill="#111111"/>
<path d="M10.7773 7.24374C10.7475 6.9262 10.5148 6.65292 10.2084 6.56811C9.89205 6.48058 9.54373 6.60561 9.35752 6.87655C9.1724 7.14585 9.17541 7.50917 9.36487 7.7755C9.55537 8.04335 9.90619 8.16237 10.2208 8.06979C10.5744 7.96573 10.8163 7.61202 10.7773 7.24374Z" fill="#111111"/>
<path d="M17.0711 2.92891C15.1823 1.0402 12.6711 0 10 0C7.32891 0 4.8177 1.0402 2.92891 2.92891C1.0402 4.8177 0 7.32891 0 10C0 12.6711 1.0402 15.1823 2.92891 17.0711C4.8177 18.9598 7.32891 20 10 20C12.6711 20 15.1823 18.9598 17.0711 17.0711C18.9598 15.1823 20 12.6711 20 10C20 7.32891 18.9598 4.8177 17.0711 2.92891ZM10 18.4375C5.34754 18.4375 1.5625 14.6525 1.5625 10C1.5625 5.34754 5.34754 1.5625 10 1.5625C14.6525 1.5625 18.4375 5.34754 18.4375 10C18.4375 14.6525 14.6525 18.4375 10 18.4375Z" fill="#111111"/>
<path d="M10 3.4375C6.38141 3.4375 3.4375 6.38141 3.4375 10C3.4375 13.6186 6.38141 16.5625 10 16.5625C11.0016 16.5625 11.9641 16.3415 12.8607 15.9056C13.2488 15.717 13.4104 15.2495 13.2218 14.8614C13.0332 14.4734 12.5657 14.3117 12.1776 14.5004C11.4956 14.8319 10.763 15 10 15C7.24297 15 5 12.757 5 10C5 7.24301 7.24297 5 10 5C12.757 5 15 7.24301 15 10C15 10.7402 14.8414 11.4528 14.5287 12.1183C14.3452 12.5088 14.513 12.9741 14.9035 13.1576C15.2941 13.3412 15.7594 13.1733 15.9429 12.7829C16.354 11.9079 16.5625 10.9716 16.5625 10C16.5625 6.38141 13.6186 3.4375 10 3.4375Z" fill="#111111"/>
</g>
<defs>
<clipPath id="clip0_133_942">
<rect width="20" height="20" fill="white"/>
</clipPath>
</defs>
</svg>
