<svg width="75" height="75" viewBox="0 0 75 75" fill="none" xmlns="http://www.w3.org/2000/svg">
<g opacity="0.75">
<path d="M37.5 65.7611C28.1471 65.7594 18.8034 65.1957 9.51867 64.0735C5.34328 63.5218 2.03948 60.2695 1.42199 56.1038C-0.473995 43.8627 -0.473995 31.4023 1.42199 19.1611C2.03948 14.9955 5.34328 11.7432 9.51867 11.1915C28.1053 8.9527 46.894 8.9527 65.4813 11.1915C69.6561 11.7432 72.9599 14.9955 73.5774 19.1611C75.474 31.4023 75.474 43.8627 73.5774 56.1038C72.9599 60.2695 69.6561 63.5218 65.4813 64.0735C56.196 65.1957 46.8523 65.7594 37.5 65.7611Z" fill="#AA0000"/>
<path d="M28.124 53.5841V21.6809L53.6439 37.6322L28.124 53.5841Z" fill="white"/>
</g>
</svg>
