<svg width="100" height="100" viewBox="0 0 100 100" fill="none" xmlns="http://www.w3.org/2000/svg">
<path d="M95.6055 40.9375V33.6328C95.6445 29.9023 92.5977 26.8555 88.8672 26.8555C86.4258 26.8555 84.1016 27.4023 82.0312 28.3789L79.1016 30.1562C75.7617 32.7148 73.457 36.543 72.8906 40.9375L72.7734 42.9492C72.7734 42.9492 72.7734 42.9492 72.7734 42.9687V43.8867H64.7266C63.9258 43.8867 63.2617 44.5508 63.2617 45.3516C63.2617 46.1523 63.9258 46.8164 64.7266 46.8164H72.7734H75.6836H76.8555C79.4531 46.8164 81.8945 47.8125 83.75 49.6289L84.2773 50.2344C85.9766 52.168 84.5898 55.1758 81.9531 55.1758H18.0469C15.5469 55.1758 14.1211 52.4219 15.5469 50.4492L15.8008 50.0977C17.6758 48.0078 20.3516 46.8164 23.1445 46.8164H24.2969H27.2266H57.8711C58.6719 46.8164 59.3359 46.1523 59.3359 45.3516C59.3359 44.5508 58.6719 43.8867 57.8711 43.8867H27.2266L27.1094 40.957C26.582 36.543 24.2578 32.6758 20.8984 30.0781L17.9687 28.3008C15.8984 27.3242 13.5742 26.7773 11.1328 26.7773C7.40234 26.7773 4.35547 29.8242 4.35547 33.5547V49.9609V68.0469C4.35547 70.8984 6.67969 73.2422 9.55078 73.2422H12.5391H15.4883H22.207H25.1562H29.5117C30.3125 73.2422 30.9766 72.5781 30.9766 71.7773C30.9766 70.9766 30.3125 70.3125 29.5117 70.3125C22.5 70.3125 19.5508 70.3125 18.4375 70.3125C17.9688 70.3125 17.8125 70.3125 17.832 70.3125C17.7734 70.3125 17.6953 70.3125 17.6172 70.3125C15.2148 70.3125 13.2617 68.3594 13.2617 65.957C13.2617 55.8008 13.2422 56.4453 13.3008 55.8398C14.4141 57.2656 16.1523 58.125 18.0273 58.125H81.9336C83.8281 58.125 85.5469 57.2852 86.6602 55.8398C86.7188 56.4453 86.6992 55.9375 86.6992 65.9375C86.6992 68.3398 84.7461 70.293 82.3438 70.293C74.5703 70.293 46.3281 70.293 36.3672 70.293C35.5664 70.293 34.9023 70.957 34.9023 71.7578C34.9023 72.5586 35.5664 73.2227 36.3672 73.2227H74.8047H77.7539H84.4727H87.4219H90.4102C93.2617 73.2227 95.6055 70.8984 95.6055 68.0273V40.9375ZM10.3516 56.6797V65.918C10.3516 67.5586 10.8984 69.0625 11.7969 70.2734H9.55078C8.30078 70.2734 7.28516 69.2578 7.28516 68.0078V40.9375V33.5352C7.28516 31.4258 9.00391 29.6875 11.1328 29.6875C18.3984 29.6875 24.2969 35.5859 24.2969 42.8516V43.8672H23.1445C16.1133 43.8672 10.3516 49.5703 10.3516 56.6797ZM90.4492 70.2734H88.1836C89.1016 69.0625 89.6289 67.5586 89.6289 65.918V56.6797C89.6289 49.5898 83.8867 43.8867 76.8359 43.8867H75.6836V42.9687C75.6836 35.7031 81.582 29.8047 88.8477 29.8047C90.957 29.8047 92.6953 31.5234 92.6953 33.6523V50.0391V68.0078H92.7149C92.7149 69.2578 91.6992 70.2734 90.4492 70.2734Z" fill="#64AA3A"/>
</svg>
