<svg width="100" height="100" viewBox="0 0 100 100" fill="none" xmlns="http://www.w3.org/2000/svg">
<g clip-path="url(#clip0_95_77)">
<path d="M85.3531 14.6542C65.8156 -4.88341 34.1908 -4.88612 14.6505 14.6542C-2.60467 31.9091 -4.46258 58.2972 8.27557 77.5536C8.78363 78.3214 9.81748 78.5318 10.5849 78.0241C11.3525 77.5163 11.5631 76.4824 11.0555 75.7148C6.00832 68.0848 3.34029 59.1946 3.34029 50.0056C3.34029 24.2764 24.2725 3.3442 50.0017 3.3442C75.7309 3.3442 96.6631 24.2764 96.6631 50.0056C96.6631 75.7348 75.7309 96.667 50.0017 96.667C37.4658 96.667 25.6999 91.7651 16.8715 82.864C16.223 82.2105 15.1679 82.2062 14.5147 82.8544C13.8612 83.5027 13.8568 84.5578 14.5051 85.2112C23.9642 94.7481 36.5703 100 50.0017 100C77.6319 100 99.9961 77.64 99.9961 50.0058C99.9961 36.6515 94.7958 24.0969 85.3531 14.6542Z" fill="#64AA3A"/>
<path d="M90.9621 55.5258C91.8788 55.6112 92.6902 54.9367 92.7754 54.0204C95.1187 28.7472 75.1886 7.04669 50.0019 7.04669C26.3143 7.04669 7.04297 26.3179 7.04297 50.0056C7.04297 73.6934 26.3141 92.9645 50.0019 92.9645C69.6782 92.9645 85.861 79.8383 91.1206 62.4819C91.3874 61.601 90.8898 60.6707 90.009 60.4036C89.1281 60.1366 88.1978 60.6344 87.9307 61.5151C82.8344 78.3324 67.592 89.6314 50.0017 89.6314C28.1518 89.6314 10.3757 71.8552 10.3757 50.0054C10.3757 28.1556 28.1521 10.3797 50.0017 10.3797C73.1861 10.3797 91.6228 30.3449 89.4566 53.7125C89.3716 54.629 90.0457 55.4408 90.9621 55.5258Z" fill="#64AA3A"/>
<path d="M84.0368 50.0056C84.0368 49.0853 83.2907 48.3391 82.3703 48.3391H77.6396C76.7193 48.3391 75.9731 49.0853 75.9731 50.0056C75.9731 50.9259 76.7193 51.6721 77.6396 51.6721H82.3703C83.2907 51.6721 84.0368 50.9259 84.0368 50.0056Z" fill="#64AA3A"/>
<path d="M33.2284 24.286L34.7397 26.9036C35.2001 27.7008 36.2195 27.9737 37.0161 27.5136C37.8133 27.0534 38.0862 26.0342 37.626 25.2372L35.258 21.1357C34.798 20.339 33.7771 20.0652 32.9801 20.5266C27.8176 23.5136 23.5099 27.8214 20.5225 32.9842C20.0615 33.7808 20.3342 34.8015 21.1316 35.2621L25.2333 37.6301C26.029 38.0895 27.0489 37.8187 27.5097 37.0202C27.9698 36.223 27.6967 35.204 26.8997 34.7438L24.2821 33.2325C26.6123 29.6673 29.6638 26.6158 33.2284 24.286Z" fill="#64AA3A"/>
<path d="M62.3778 74.7741L64.7467 78.8769C65.2077 79.6737 66.2272 79.9458 67.0238 79.4848C72.1865 76.4976 76.4941 72.1898 79.4813 67.0272C79.9423 66.2307 79.6696 65.2099 78.8722 64.7494L74.7706 62.3813C73.9734 61.9211 72.9541 62.1942 72.4942 62.9912C72.034 63.7884 72.3071 64.8075 73.1041 65.2676L75.7217 66.7789C73.392 70.3431 70.339 73.3938 66.7748 75.7236L65.2644 73.1072C64.804 72.3102 63.785 72.0371 62.988 72.4973C62.1908 72.9576 61.9177 73.9769 62.3778 74.7741Z" fill="#64AA3A"/>
<path d="M32.98 79.4846C33.7762 79.9456 34.7973 79.6729 35.2579 78.8755L37.626 74.7741C38.0861 73.9771 37.813 72.9578 37.016 72.4977C36.219 72.0373 35.1998 72.3106 34.7396 73.1076L33.2283 75.7252C29.6637 73.3953 26.6122 70.344 24.2823 66.7791L26.8999 65.2679C27.6969 64.8077 27.97 63.7884 27.5098 62.9914C27.0497 62.1945 26.0302 61.9214 25.2334 62.3815L21.1318 64.7496C20.3346 65.2099 20.0613 66.2305 20.5227 67.0275C23.5098 72.19 27.8175 76.4976 32.98 79.4846Z" fill="#64AA3A"/>
<path d="M48.3354 77.6435V82.3743C48.3354 83.2946 49.0816 84.0407 50.0019 84.0407C50.9222 84.0407 51.6684 83.2946 51.6684 82.3743V77.6435C51.6684 76.7232 50.9222 75.9771 50.0019 75.9771C49.0816 75.9771 48.3354 76.7232 48.3354 77.6435Z" fill="#64AA3A"/>
<path d="M72.4939 37.0198C72.9555 37.8195 73.9754 38.0886 74.7703 37.6297L78.8717 35.2617C79.6687 34.8017 79.9422 33.781 79.4808 32.9838C76.4939 27.8212 72.186 23.5136 67.0233 20.5262C66.2269 20.065 65.206 20.3379 64.7454 21.1353L62.3773 25.237C61.9172 26.0342 62.1903 27.0532 62.9873 27.5134C63.7845 27.9733 64.8035 27.7004 65.2637 26.9034L66.775 24.2858C70.3398 26.6158 73.3913 29.6671 75.721 33.2319L73.1034 34.7432C72.3068 35.2035 72.0338 36.2228 72.4939 37.0198Z" fill="#64AA3A"/>
<path d="M50.0019 24.0342C50.9222 24.0342 51.6684 23.288 51.6684 22.3677V17.637C51.6684 16.7167 50.9222 15.9705 50.0019 15.9705C49.0816 15.9705 48.3354 16.7167 48.3354 17.637V22.3677C48.3354 23.288 49.0816 24.0342 50.0019 24.0342Z" fill="#64AA3A"/>
<path d="M15.9668 50.0056C15.9668 50.9259 16.713 51.6721 17.6333 51.6721H22.364C23.2843 51.6721 24.0305 50.9259 24.0305 50.0056C24.0305 49.0853 23.2843 48.3391 22.364 48.3391H17.6333C16.713 48.3391 15.9668 49.0851 15.9668 50.0056Z" fill="#64AA3A"/>
<path d="M56.8759 50.0056C56.8759 46.7897 54.6559 44.0836 51.6681 43.3368V29.0778C51.6681 28.1575 50.922 27.4113 50.0017 27.4113C49.0813 27.4113 48.3352 28.1575 48.3352 29.0778V43.3368C44.6164 44.2665 42.3111 48.1175 43.3939 51.8962L35.8789 56.2351C35.0819 56.6953 34.8088 57.7145 35.2689 58.5115C35.7306 59.3112 36.7504 59.5804 37.5453 59.1215L45.0635 54.7807C46.3142 56.0735 48.065 56.8796 50.0014 56.8796C53.7923 56.8798 56.8759 53.796 56.8759 50.0056ZM50.0017 53.5469C48.049 53.5469 46.4604 51.9583 46.4604 50.0056C46.4604 48.0529 48.049 46.4643 50.0017 46.4643C51.9543 46.4643 53.5429 48.0529 53.5429 50.0056C53.5429 51.9583 51.9543 53.5469 50.0017 53.5469Z" fill="#64AA3A"/>
</g>
<defs>
<clipPath id="clip0_95_77">
<rect width="100" height="100" fill="white"/>
</clipPath>
</defs>
</svg>
