<svg width="100" height="100" viewBox="0 0 100 100" fill="none" xmlns="http://www.w3.org/2000/svg">
<g clip-path="url(#clip0_95_69)">
<path d="M93.3333 25.625H89.7917V6.66667C89.7917 2.99062 86.801 0 83.125 0H63.5417C59.8656 0 56.875 2.99062 56.875 6.66667V25.625H53.5417C47.1869 25.625 45.0444 33.9583 48.5417 33.9583C49.4621 33.9583 50.2083 33.2121 50.2083 32.2917C50.2083 30.4535 51.7038 28.9583 53.5417 28.9583H93.3333C95.1712 28.9583 96.6667 30.4535 96.6667 32.2917V85C96.6667 86.8381 95.1712 88.3333 93.3333 88.3333C90.1946 88.3333 86.0552 88.3333 82.9167 88.3333C81.9962 88.3333 81.25 89.0796 81.25 90V94.1667C81.25 97.3831 83.8669 100 87.0833 100C90.2998 100 92.9167 97.3831 92.9167 94.1667V91.6667C97.43 91.6667 100 88.3877 100 85V32.2917C100 28.6156 97.0094 25.625 93.3333 25.625ZM60.2083 25.625V11.25H80.3473C81.2677 11.25 82.014 10.5037 82.014 9.58333C82.014 8.66292 81.2677 7.91667 80.3473 7.91667H60.2083V6.66667C60.2083 4.82854 61.7037 3.33333 63.5417 3.33333H83.125C84.9629 3.33333 86.4583 4.82854 86.4583 6.66667V25.625H60.2083ZM89.5833 94.1667C89.5833 95.5452 88.4619 96.6667 87.0833 96.6667C85.7048 96.6667 84.5833 95.5452 84.5833 94.1667V91.6667H89.5833V94.1667ZM67.5 47.9167H51.6667V44.375C51.6667 40.699 48.676 37.7083 45 37.7083H29.1667C25.4906 37.7083 22.5 40.699 22.5 44.375V47.9167H6.66667C2.99062 47.9167 0 50.9073 0 54.5833V93.3333C0 97.0094 2.99062 100 6.66667 100H23.75C24.6704 100 25.4167 99.2537 25.4167 98.3333V61.5625C25.4167 60.6421 24.6704 59.8958 23.75 59.8958C22.8296 59.8958 22.0833 60.6421 22.0833 61.5625V96.6667H13.5417V51.25H48.75V96.6667H35.3125C34.3921 96.6667 33.6458 97.4129 33.6458 98.3333C33.6458 99.2537 34.3921 100 35.3125 100H67.5C71.176 100 74.1667 97.0094 74.1667 93.3333V54.5833C74.1667 50.9073 71.176 47.9167 67.5 47.9167ZM25.8333 44.375C25.8333 42.5369 27.3287 41.0417 29.1667 41.0417H45C46.8379 41.0417 48.3333 42.5369 48.3333 44.375V47.9167H25.8333V44.375ZM10.2083 96.6667H6.66667C4.82875 96.6667 3.33333 95.1715 3.33333 93.3333V54.5833C3.33333 52.7452 4.82875 51.25 6.66667 51.25H10.2083V96.6667ZM70.8333 93.3333C70.8333 95.1715 69.3379 96.6667 67.5 96.6667H52.0833V51.25H60.625V86.4583C60.625 87.3787 61.3713 88.125 62.2917 88.125C63.2121 88.125 63.9583 87.3787 63.9583 86.4583V51.25H67.5C69.3379 51.25 70.8333 52.7452 70.8333 54.5833V93.3333ZM80.7292 57.0833H88.125C89.0454 57.0833 89.7917 57.8296 89.7917 58.75C89.7917 59.6704 89.0454 60.4167 88.125 60.4167H80.7292C79.8087 60.4167 79.0625 59.6704 79.0625 58.75C79.0625 57.8296 79.8087 57.0833 80.7292 57.0833ZM84.5833 40C84.5833 40.9204 83.8371 41.6667 82.9167 41.6667H64.1667C63.2463 41.6667 62.5 40.9204 62.5 40C62.5 39.0796 63.2463 38.3333 64.1667 38.3333H82.9167C83.8371 38.3333 84.5833 39.0796 84.5833 40ZM82.9167 79.1667H79.7917C78.8712 79.1667 78.125 78.4204 78.125 77.5C78.125 76.5796 78.8712 75.8333 79.7917 75.8333H82.9167C83.8371 75.8333 84.5833 76.5796 84.5833 77.5C84.5833 78.4204 83.8371 79.1667 82.9167 79.1667Z" fill="#64AA3A"/>
</g>
<defs>
<clipPath id="clip0_95_69">
<rect width="100" height="100" fill="white"/>
</clipPath>
</defs>
</svg>
